<?xml version="1.0" encoding="iso-8859-1"?>
<!-- Generator: Adobe Illustrator 18.1.1, SVG Export Plug-In . SVG Version: 6.00 Build 0)  -->
<svg version="1.1" id="Capa_1" xmlns="http://www.w3.org/2000/svg" xmlns:xlink="http://www.w3.org/1999/xlink" x="0px" y="0px"
	 viewBox="0 0 255.087 255.087" style="enable-background:new 0 0 255.087 255.087;" xml:space="preserve">
<g>
	<path style="fill:#010002;" d="M254.799,171.483c-2.118-4.606-9.637-7.685-10.687-12.489
		c-14.553-66.507-59.979-125.43-116.599-125.573C70.703,33.279,25.081,92.005,10.939,158.989
		c-0.961,4.553-8.503,7.775-10.657,12.524c-3.359,7.381,23.784,33.432,53.022,40.825c24.434,6.188,49.322,9.32,74.21,9.326
		c24.888,0,49.782-3.127,74.216-9.32C230.956,204.958,258.194,178.847,254.799,171.483z M140.951,162.217l-13.408-9.744
		l-13.408,9.744l5.12-15.764l-13.408-9.744h16.576l5.12-15.764l5.12,15.764h16.57l-13.408,9.744L140.951,162.217z"/>
</g>
<g>
</g>
<g>
</g>
<g>
</g>
<g>
</g>
<g>
</g>
<g>
</g>
<g>
</g>
<g>
</g>
<g>
</g>
<g>
</g>
<g>
</g>
<g>
</g>
<g>
</g>
<g>
</g>
<g>
</g>
</svg>
